<?xml version="1.0" encoding="UTF-8" standalone="no"?>
<!-- Created with Inkscape (http://www.inkscape.org/) -->

<svg
   version="1.1"
   id="svg39"
   width="1628"
   height="600"
   viewBox="0 0 1628 600"
   sodipodi:docname="logo.svg"
   inkscape:version="1.1 (c68e22c387, 2021-05-23)"
   xmlns:inkscape="http://www.inkscape.org/namespaces/inkscape"
   xmlns:sodipodi="http://sodipodi.sourceforge.net/DTD/sodipodi-0.dtd"
   xmlns="http://www.w3.org/2000/svg"
   xmlns:svg="http://www.w3.org/2000/svg">
  <defs
     id="defs43">
    <inkscape:perspective
       sodipodi:type="inkscape:persp3d"
       inkscape:vp_x="0 : 300 : 1"
       inkscape:vp_y="0 : 1000 : 0"
       inkscape:vp_z="1628 : 300 : 1"
       inkscape:persp3d-origin="814 : 200 : 1"
       id="perspective35917" />
  </defs>
  <sodipodi:namedview
     id="namedview41"
     pagecolor="#505050"
     bordercolor="#ffffff"
     borderopacity="1"
     inkscape:pageshadow="0"
     inkscape:pageopacity="0"
     inkscape:pagecheckerboard="1"
     showgrid="false"
     inkscape:zoom="0.41001769"
     inkscape:cx="1054.8325"
     inkscape:cy="506.07572"
     inkscape:window-width="1543"
     inkscape:window-height="1031"
     inkscape:window-x="0"
     inkscape:window-y="0"
     inkscape:window-maximized="1"
     inkscape:current-layer="g45" />
  <g
     inkscape:groupmode="layer"
     inkscape:label="Image"
     id="g45">
    <path
       style="fill:#000000"
       id="path147"
       d="" />
    <g
       id="g37556"
       transform="translate(-23.96055)">
      <path
         d="m 438.7175,443.92664 c -2.0803,-0.48987 -5.2303,-1.67707 -7,-2.63823 -1.7696,-0.96115 -3.7761,-1.75739 -4.4589,-1.76941 -0.6828,-0.012 -1.2774,-0.46712 -1.3213,-1.01132 -0.1438,-1.78324 -3.1793,-4.45669 -4.3209,-3.80555 -0.614,0.35021 -0.7747,0.26048 -0.3572,-0.1994 1.0063,-1.10837 -3.2615,-5.60106 -4.559,-4.79918 -0.5551,0.34303 -0.7322,0.17546 -0.3936,-0.37237 0.7036,-1.13847 -5.5796,-7.61926 -6.6223,-6.83054 -0.3764,0.28467 -0.4551,0.21346 -0.1751,-0.15823 0.732,-0.97163 -3.6281,-5.36873 -4.6793,-4.71904 -0.4837,0.29893 -0.7558,-0.0524 -0.6046,-0.78082 0.1511,-0.72838 -0.3212,-1.20068 -1.0496,-1.04955 -0.7284,0.15112 -1.0797,-0.12096 -0.7808,-0.60464 0.73,-1.18115 -3.8377,-5.39397 -4.8024,-4.42929 -0.4175,0.41753 -0.6091,0.0841 -0.4258,-0.74085 0.202,-0.90909 -0.2576,-1.36869 -1.1667,-1.16667 -0.825,0.18334 -1.1469,-0.0198 -0.7153,-0.45134 1.0273,-1.02728 -24.3518,-26.45852 -25.6213,-25.67393 -0.5348,0.33053 -0.6991,0.1588 -0.3651,-0.38161 0.7844,-1.26919 -10.6602,-12.63115 -11.6879,-11.60348 -0.4274,0.42737 -0.627,0.10203 -0.4437,-0.72297 0.1845,-0.83043 -0.2578,-1.37735 -0.991,-1.22522 -0.7284,0.15112 -1.0898,-0.10474 -0.8031,-0.5686 0.7506,-1.21456 -22.8014,-24.42883 -23.8321,-23.49029 -0.4736,0.43126 -0.5815,0.29291 -0.2397,-0.30744 0.7867,-1.3818 -5.6381,-7.71098 -6.7768,-6.67603 -0.4646,0.42217 -0.5613,0.27049 -0.2151,-0.33706 0.7868,-1.38072 -3.6519,-5.69086 -4.7934,-4.65451 -0.4599,0.41753 -0.5565,0.26795 -0.2147,-0.3324 0.7694,-1.35143 -5.6389,-7.73695 -6.6998,-6.67603 -0.4222,0.42217 -0.6176,0.0926 -0.4343,-0.73242 0.1833,-0.825 -0.2292,-1.3875 -0.9167,-1.25 -0.6875,0.1375 -1.1375,-0.29205 -1,-0.95455 0.1375,-0.6625 -0.425,-1.23509 -1.25,-1.27244 -0.8858,-0.0401 -1.3702,-0.81635 -1.1831,-1.8958 0.1878,-1.08304 -0.1132,-1.5621 -0.7385,-1.17562 -0.6634,0.40997 -0.8108,0.0148 -0.397,-1.0637 0.4205,-1.0958 0.2694,-1.47549 -0.4182,-1.05056 -0.6839,0.4227 -0.8869,-0.0602 -0.5565,-1.3238 0.3122,-1.19365 -0.054,-2.20944 -0.9146,-2.53984 -2.002,-0.76824 -2.1082,-23.1384 -0.1135,-23.90384 0.7268,-0.27889 1.3214,-0.99776 1.3214,-1.59748 0,-0.59972 -0.5625,-0.7998 -1.25,-0.44461 -0.6875,0.35519 -0.1727,-0.23151 1.1439,-1.30377 1.5312,-1.24708 2.1061,-2.41501 1.5955,-3.24128 -0.4939,-0.79912 -0.4013,-1.04632 0.2428,-0.64823 1.2404,0.76658 3.3236,-1.5086 3.6944,-4.03477 0.1452,-0.98984 0.8962,-1.82016 1.6688,-1.84516 0.7725,-0.025 1.2921,-0.5875 1.1546,-1.25 -0.1375,-0.6625 0.3125,-1.09205 1,-0.95455 0.6875,0.1375 1.1375,-0.3125 1,-1 -0.1375,-0.6875 0.2921,-1.1375 0.9546,-1 0.6625,0.1375 1.225,-0.425 1.25,-1.25 0.025,-0.825 0.7204,-1.52045 1.5454,-1.54545 0.825,-0.025 1.3764,-0.62095 1.2253,-1.32433 -0.1512,-0.70339 0.115,-1.03794 0.5915,-0.74346 1.2109,0.74837 7.3919,-5.82739 6.4508,-6.86283 -0.4221,-0.46452 -0.2856,-0.57063 0.3035,-0.23581 1.3837,0.78645 19.7457,-17.61322 18.7111,-18.74956 -0.4302,-0.47256 -0.291,-0.57956 0.3094,-0.23779 1.3818,0.78666 7.711,-5.63808 6.676,-6.77683 -0.4221,-0.46452 -0.2764,-0.56494 0.324,-0.22317 1.3514,0.76937 7.7369,-5.63892 6.676,-6.69984 -0.4221,-0.42217 -0.113,-0.61759 0.687,-0.43425 0.8,0.18333 1.475,-0.34167 1.5,-1.16667 0.025,-0.825 0.7204,-1.52045 1.5454,-1.54545 0.825,-0.025 1.3875,-0.5875 1.25,-1.25 -0.1375,-0.6625 0.3125,-1.09205 1,-0.95455 0.6875,0.1375 1.1375,-0.3125 1,-1 -0.1375,-0.6875 0.2921,-1.1375 0.9546,-1 0.6625,0.1375 1.225,-0.3125 1.25,-1 0.025,-0.6875 0.3357,-1.1375 0.6905,-1 0.9826,0.38085 4.8715,-3.41428 4.3549,-4.25 -0.249,-0.40299 0.5491,-1.58035 1.7736,-2.61635 l 2.2264,-1.88365 -1.9928,2.5 -1.9929,2.5 2.7121,-2.39536 c 1.4916,-1.31745 2.4313,-2.84948 2.0883,-3.40451 -0.343,-0.55503 -0.1755,-0.73213 0.3724,-0.39355 1.269,0.78427 7.6094,-5.67675 6.5805,-6.70566 -0.4221,-0.42217 -0.113,-0.61759 0.687,-0.43425 0.8,0.18333 1.475,-0.34167 1.5,-1.16667 0.025,-0.825 0.7204,-1.52045 1.5454,-1.54545 0.825,-0.025 1.3875,-0.5875 1.25,-1.25 -0.1375,-0.6625 0.3125,-1.09205 1,-0.95455 0.6875,0.1375 1.1375,-0.3125 1,-1 -0.1375,-0.6875 0.2921,-1.1375 0.9546,-1 0.6625,0.1375 1.225,-0.425 1.25,-1.25 0.025,-0.825 0.7204,-1.52045 1.5454,-1.54545 0.825,-0.025 1.3875,-0.5875 1.25,-1.25 -0.1375,-0.6625 0.3125,-1.09205 1,-0.95455 0.6875,0.1375 1.1264,-0.34595 0.9753,-1.07433 -0.1512,-0.72838 0.1354,-1.07084 0.6367,-0.76101 1.1799,0.72925 3.3539,-1.86551 2.3794,-2.84 -0.4078,-0.40773 -0.066,-0.59133 0.7586,-0.40799 0.825,0.18333 1.3875,-0.22917 1.25,-0.91667 -0.1375,-0.6875 0.2921,-1.1375 0.9546,-1 0.6625,0.1375 1.225,-0.425 1.25,-1.25 0.025,-0.825 0.7204,-1.52045 1.5454,-1.54545 0.825,-0.025 1.3875,-0.5875 1.25,-1.25 -0.1375,-0.6625 0.3125,-1.09205 1,-0.95455 0.6875,0.1375 1.1375,-0.3125 1,-1 -0.1375,-0.6875 0.2921,-1.1375 0.9546,-1 0.6625,0.1375 1.225,-0.425 1.25,-1.25 0.025,-0.825 0.7204,-1.52045 1.5454,-1.54545 0.825,-0.025 1.3875,-0.5875 1.25,-1.25 -0.1375,-0.6625 0.3125,-1.09205 1,-0.95455 0.6875,0.1375 1.1375,-0.3125 1,-1 -0.1375,-0.6875 0.2921,-1.1375 0.9546,-1 0.6625,0.1375 1.225,-0.3821 1.25,-1.15467 0.025,-0.77257 0.8993,-1.52999 1.9429,-1.68316 1.0436,-0.15316 2.6186,-1.04695 3.5,-1.98619 1.2929,-1.37776 1.3127,-1.55291 0.1025,-0.90652 -0.8537,0.45603 -1.1539,0.42196 -0.6967,-0.0791 0.4419,-0.48416 1.7919,-0.8938 3,-0.91032 1.2082,-0.0165 2.0996,-0.54639 1.9809,-1.17748 -0.1227,-0.65257 0.5677,-0.94254 1.601,-0.67235 0.9992,0.26129 2.4463,-0.12236 3.2158,-0.85256 1.9301,-1.83161 17.868,-1.83161 19.7981,0 0.7695,0.7302 2.2166,1.11385 3.2158,0.85256 1.0332,-0.27019 1.7237,0.0198 1.601,0.67235 -0.1187,0.63109 0.7743,1.11411 1.9844,1.07338 1.2102,-0.0407 1.9901,0.26598 1.7333,0.68158 -0.5683,0.91957 3.6072,3.98535 4.5958,3.37436 0.3868,-0.2391 1.5082,0.45467 2.492,1.5417 0.9837,1.08703 1.4823,1.97642 1.108,1.97642 -0.3744,0 0.025,1.36471 0.8876,3.0327 0.8625,1.66798 1.9571,2.79236 2.4324,2.49862 0.4753,-0.29375 0.63,0.36107 0.3439,1.45515 -0.3131,1.19747 0.054,2.20974 0.9236,2.54325 1.1429,0.43857 1.427,2.81776 1.3635,11.41683 -0.044,5.97454 0.2503,10.3432 0.6543,9.70813 0.4238,-0.66603 0.7412,-0.71974 0.75,-0.12692 0.01,0.56527 -0.9222,1.83048 -2.068,2.81158 -1.1665,0.9988 -1.8317,2.43971 -1.5115,3.27418 0.3686,0.96047 0.16,1.23579 -0.5865,0.77437 -0.7808,-0.4825 -0.9438,-0.15641 -0.5,1 0.4138,1.07852 0.2664,1.47367 -0.397,1.0637 -0.6253,-0.38648 -0.9263,0.0926 -0.7385,1.17562 0.1871,1.07945 -0.2973,1.85571 -1.1832,1.8958 -0.825,0.0374 -1.3763,0.64339 -1.2252,1.34677 0.1511,0.70339 -0.106,1.04356 -0.5713,0.75596 -1.4208,-0.87808 -67.5481,66.00762 -66.6676,67.43221 0.5357,0.86686 0.3664,0.99968 -0.5513,0.4325 -0.9564,-0.59112 -1.1504,-0.3651 -0.6982,0.81347 0.3445,0.89761 0.1264,1.94096 -0.4845,2.31855 -0.7195,0.44465 -0.8258,0.22532 -0.3019,-0.62248 0.5515,-0.89222 0.4198,-1.06841 -0.4136,-0.55336 -0.6725,0.41561 -0.9722,1.40852 -0.666,2.20645 0.3062,0.79793 0.1641,1.20813 -0.3158,0.91156 -1.1912,-0.73622 -3.4762,5.02499 -2.5728,6.4868 0.3985,0.64468 0.1043,1.55615 -0.6536,2.02548 -1.8004,1.11475 -1.8492,12.70491 -0.058,13.81179 0.7265,0.44903 0.9595,1.52226 0.5578,2.56919 -0.4766,1.24189 0.054,2.40386 1.7161,3.75683 1.3234,1.07735 1.8436,1.66821 1.1561,1.31302 -1.5257,-0.78825 -1.5853,-0.0229 -0.1998,2.56599 0.5776,1.07925 1.4268,1.72951 1.8871,1.44502 0.4603,-0.28449 0.7752,0.26541 0.6998,1.22199 -0.076,0.96193 0.4548,1.61644 1.1873,1.46446 0.7283,-0.15112 1.0895,0.10513 0.8025,0.56946 -0.7505,1.21442 20.8025,22.42735 21.8333,21.48877 0.4733,-0.4309 0.5861,-0.30083 0.2508,0.28905 -0.3353,0.58987 3.2874,4.86487 8.0504,9.5 4.763,4.63512 7.7777,7.3025 6.6993,5.9275 l -1.9607,-2.5 2.2264,1.88365 c 1.2246,1.036 2.0227,2.21336 1.7736,2.61635 -0.249,0.40299 0.4366,1.53759 1.5236,2.52134 1.087,0.98375 1.9764,1.42415 1.9764,0.97866 0,-0.44549 0.8894,-0.005 1.9764,0.97866 1.0871,0.98375 1.7727,2.11835 1.5236,2.52134 -0.249,0.40299 0.4366,1.53759 1.5236,2.52134 1.087,0.98375 1.9764,1.43879 1.9764,1.0112 0,-0.42758 0.6701,-0.22134 1.489,0.45832 0.819,0.67967 1.285,1.5659 1.0356,1.96942 -0.2494,0.40352 0.986,2.04003 2.7453,3.6367 2.7227,2.47093 2.9035,2.53092 1.2145,0.40302 l -1.9844,-2.5 2.2264,1.88365 c 1.2246,1.036 2.0227,2.21336 1.7736,2.61635 -0.249,0.40299 0.4366,1.53759 1.5236,2.52134 1.087,0.98375 1.9764,1.42415 1.9764,0.97866 0,-0.44549 0.8894,-0.005 1.9764,0.97866 1.0871,0.98375 1.7808,2.10516 1.5417,2.49202 -0.6361,1.02931 2.474,5.15225 3.4374,4.55681 0.4503,-0.27828 0.757,0.27669 0.6816,1.23327 -0.075,0.95658 0.3793,1.64212 1.0104,1.52343 0.6777,-0.12748 0.9383,0.58386 0.6365,1.73785 -0.3036,1.16107 0.075,2.17842 0.9329,2.50768 1.1429,0.43857 1.427,2.81775 1.3634,11.41673 -0.044,5.97448 0.2521,10.65727 0.6583,10.40619 0.4062,-0.25109 0.4715,0.23927 0.1452,1.08968 -0.3263,0.85041 -0.949,1.32636 -1.3838,1.05768 -0.4347,-0.26868 -1.0626,0.22071 -1.3952,1.08753 -0.8728,2.27441 -0.7591,2.60867 0.6452,1.89733 0.6875,-0.34825 0.35,0.0961 -0.75,0.98742 -1.1,0.89133 -2.0047,2.27086 -2.0105,3.06562 -0.01,0.79476 -0.4558,1.46963 -1,1.4997 -1.4974,0.0827 -7.4807,6.16753 -6.9343,7.05175 0.2626,0.42485 -0.049,1.09808 -0.6934,1.49606 -0.7734,0.47801 -0.9014,0.28773 -0.3771,-0.56063 0.5324,-0.8614 0.3363,-1.11806 -0.5955,-0.77951 -0.764,0.2776 -1.3088,0.91455 -1.2106,1.41544 0.098,0.5009 -0.5768,0.97513 -1.5,1.05386 -0.9232,0.0787 -4.1391,0.85016 -7.1465,1.71429 -5.9599,1.71251 -11.4346,1.86414 -17.3146,0.47956 z M 471,387.64066 c 0,-0.20765 -0.7875,-0.99515 -1.75,-1.75 -1.586,-1.24387 -1.6214,-1.2085 -0.3775,0.37756 1.3064,1.66575 2.1275,2.19548 2.1275,1.37244 z m -19,-19 c 0,-0.20765 -0.7875,-0.99515 -1.75,-1.75 -1.586,-1.24387 -1.6214,-1.2085 -0.3775,0.37756 1.3064,1.66575 2.1275,2.19548 2.1275,1.37244 z m 21,-200.99999 c 0,-0.20765 -0.7875,-0.99515 -1.75,-1.75 -1.586,-1.24387 -1.6214,-1.2085 -0.3775,0.37756 1.3064,1.66575 2.1275,2.19548 2.1275,1.37244 z m 8.1579,244.37755 c 0,-1.375 0.227,-1.9375 0.5044,-1.25 0.2774,0.6875 0.2774,1.8125 0,2.5 -0.2774,0.6875 -0.5044,0.125 -0.5044,-1.25 z m -43.7208,-58.25 -2.9371,-3.25 3.25,2.93709 c 3.0295,2.73778 3.7097,3.56291 2.9371,3.56291 -0.1721,0 -1.6346,-1.4625 -3.25,-3.25 z m -6.0321,-6 -1.905,-2.25 2.25,1.90499 c 2.1145,1.79022 2.7053,2.59501 1.905,2.59501 -0.1897,0 -1.2022,-1.0125 -2.25,-2.25 z m -7.9679,-8 -2.9371,-3.25 3.25,2.93709 c 1.7875,1.6154 3.25,3.0779 3.25,3.25 0,0.77256 -0.8251,0.0924 -3.5629,-2.93709 z m -6.0321,-6 -1.905,-2.25 2.25,1.90499 c 2.1145,1.79022 2.7053,2.59501 1.905,2.59501 -0.1897,0 -1.2022,-1.0125 -2.25,-2.25 z m -5.9679,-6 -2.9371,-3.25 3.25,2.93709 c 1.7875,1.6154 3.25,3.0779 3.25,3.25 0,0.77256 -0.8251,0.0924 -3.5629,-2.93709 z m -86.9371,-64.75 c 0.9955,-1.1 2.035,-2 2.31,-2 0.275,0 -0.3145,0.9 -1.31,2 -0.9954,1.1 -2.0349,2 -2.3099,2 -0.275,0 0.3145,-0.9 1.3099,-2 z m 7,-7 c 0.9955,-1.09999 2.035,-1.99999 2.31,-1.99999 0.275,0 -0.3145,0.9 -1.31,1.99999 -0.9954,1.1 -2.0349,2 -2.3099,2 -0.275,0 0.3145,-0.9 1.3099,-2 z m 3.5,-3.3129 c 0,-0.1721 1.4625,-1.6346 3.25,-3.25 l 3.25,-2.93709 -2.9371,3.25 C 335.8252,252.79769 335,253.47788 335,252.70532 Z m 8.5,-8.68709 c 0.9955,-1.1 2.035,-2 2.31,-2 0.275,0 -0.3145,0.9 -1.31,2 -0.9954,1.1 -2.0349,2 -2.3099,2 -0.275,0 0.3145,-0.9 1.3099,-2 z m 7,-7 c 0.9955,-1.1 2.035,-2 2.31,-2 0.275,0 -0.3145,0.9 -1.31,2 -0.9954,1.1 -2.0349,2 -2.3099,2 -0.275,0 0.3145,-0.9 1.3099,-2 z m 7,-7 c 0.9955,-1.1 2.035,-2 2.31,-2 0.275,0 -0.3145,0.9 -1.31,2 -0.9954,1.1 -2.0349,2 -2.3099,2 -0.275,0 0.3145,-0.9 1.3099,-2 z m 26,-26 c 0.9955,-1.1 2.035,-2 2.31,-2 0.275,0 -0.3145,0.9 -1.31,2 -0.9954,1.1 -2.0349,2 -2.3099,2 -0.275,0 0.3145,-0.9 1.3099,-2 z m 97.6579,-14 c 0,-1.375 0.227,-1.9375 0.5044,-1.25 0.2774,0.6875 0.2774,1.8125 0,2.5 -0.2774,0.6875 -0.5044,0.125 -0.5044,-1.25 z m -40.3454,-34.68311 c 0.7219,-0.28887 1.5844,-0.25335 1.9167,0.0789 0.3323,0.33229 -0.2583,0.56864 -1.3125,0.52522 -1.1649,-0.048 -1.4019,-0.28494 -0.6042,-0.60416 z"
         style="fill:#f3b13d;fill-opacity:1"
         id="path1216" />
      <g
         id="g203"
         transform="translate(34.926081,-9.9747989)">
        <g
           id="g37392"
           transform="translate(0,-32.010814)">
          <path
             style="fill:#bb604f;fill-opacity:1"
             d="m 939.15678,382.84489 c -6.80944,-1.92266 -13.07053,-5.97067 -18.61056,-12.03234 -8.55312,-9.35847 -12.01941,-22.32402 -10.9917,-41.11414 1.27161,-23.24974 8.30055,-36.7807 22.52493,-43.36129 7.76723,-3.59332 19.24283,-3.72434 26.86173,-0.30668 6.2886,2.82094 13.5846,10.32104 16.3768,16.83505 2.3417,5.46306 2.3728,5.41553 -6.5127,9.97244 -2.7072,1.38836 -7.3576,4.14136 -10.3343,6.11777 l -5.4122,3.59348 -3.1877,-3.79697 c -3.92,-4.66913 -7.0538,-4.61717 -10.2721,0.17031 -4.29227,6.38522 -5.52567,24.97895 -2.126,32.04994 3.1223,6.49403 10.4704,6.59836 13.8919,0.19724 2.7299,-5.10726 2.4787,-8.84956 -0.6375,-9.49655 -8.3575,-1.73518 -7.7935,-1.32297 -7.1591,-5.2326 0.3226,-1.98761 1.0487,-4.07606 1.6137,-4.64101 1.4649,-1.46493 33.0026,2.69213 34.1834,4.50578 1.8983,2.91602 -1.5147,20.53137 -5.689,29.36132 -2.9164,6.1692 -9.2818,12.74401 -15.0341,15.52865 -5.4453,2.63602 -13.5592,3.32293 -19.4855,1.6496 z"
             id="path205"
             sodipodi:nodetypes="sssssssscsssssssssss" />
          <path
             d="m 711.66206,375.23923 c -0.30697,-0.79996 1.78066,-6.53747 4.63917,-12.75001 6.39908,-13.90735 16.98174,-41.37643 16.98174,-44.07891 0,-1.09501 -1.95939,-4.9667 -4.3542,-8.60375 -2.39481,-3.63706 -5.38238,-8.63783 -6.63905,-11.11283 -1.25667,-2.475 -3.79728,-6.87124 -5.6458,-9.76942 -1.84852,-2.89818 -3.36095,-5.71068 -3.36095,-6.25 0,-0.53932 1.95526,-0.98058 4.34501,-0.98058 5.00491,0 6.19133,1.03434 10.0747,8.78328 4.06465,8.11067 9.57945,16.33527 10.55071,15.735 0.87077,-0.53816 5.25863,-13.33823 6.51947,-19.01828 1.28003,-5.76648 2.81406,-6.5 13.59367,-6.5 7.69813,0 10.11949,0.34591 11.40252,1.62894 0.89592,0.89592 1.4067,2.2081 1.13506,2.91596 -0.27163,0.70787 -2.78781,7.51235 -5.59151,15.12107 -2.8037,7.60871 -6.23736,16.4322 -7.63035,19.60775 -3.82344,8.71612 -4.08295,11.96395 -1.26848,15.87519 1.30306,1.81085 7.38105,11.40564 13.50665,21.32177 l 11.13745,18.02933 -4.48696,0.78986 c -4.38196,0.77137 -7.28794,-0.20409 -7.28794,-2.44636 0,-1.20868 -17.90014,-30.66376 -19.07649,-31.39078 -1.10701,-0.68417 -1.48289,0.19065 -7.96546,18.53828 -2.81597,7.97006 -5.64602,14.82568 -6.289,15.2347 -0.64298,0.40902 -6.24567,0.75057 -12.45043,0.75899 -8.95867,0.0122 -11.3963,-0.28415 -11.83953,-1.43917 z"
             style="fill:#bb604f;fill-opacity:1"
             id="path35652" />
          <path
             d="m 657.18264,340.44959 c -0.32198,-0.83907 0.0642,-11.54273 0.85817,-23.78592 0.79397,-12.24319 1.50591,-29.01035 1.5821,-37.26035 0.0762,-8.25 0.42316,-19.5 0.77106,-25 l 0.63254,-10 h 8 8 l -0.29232,5 c -0.16077,2.75 -0.38577,24.575 -0.5,48.5 l -0.20768,43.5 -9.12922,0.28593 c -7.44221,0.23309 -9.23741,0.004 -9.71465,-1.23966 z"
             style="fill:#bb604f;fill-opacity:1"
             id="path36414" />
          <path
             d="m 1074.3405,328.8375 c -0.322,-0.83907 0.064,-11.54273 0.8582,-23.78592 0.7939,-12.24319 1.5059,-29.01035 1.582,-37.26035 0.076,-8.25 0.4232,-19.5 0.7711,-25 l 0.6325,-10 h 8 8 l -0.2923,5 c -0.1607,2.75 -0.3857,24.575 -0.5,48.5 l -0.2077,43.5 -9.1292,0.28593 c -7.4422,0.23309 -9.2374,0.004 -9.7146,-1.23966 z"
             style="fill:#008080;fill-opacity:1"
             id="path36414-7" />
          <path
             d="m 1012.5312,352.71641 c -0.322,-0.83907 0.064,-11.54273 0.8581,-23.78592 0.794,-12.24319 1.5059,-29.01035 1.5821,-37.26035 0.076,-8.25 0.4232,-19.5 0.7711,-25 l 0.6325,-10 h 8 8 l -0.2923,5 c -0.1608,2.75 -0.3858,24.575 -0.5,48.5 l -0.2077,43.5 -9.1292,0.28593 c -7.4422,0.23309 -9.2374,0.004 -9.7146,-1.23966 z"
             style="fill:#bb604f;fill-opacity:1"
             id="path36414-6" />
          <path
             d="m 543.31183,368.49544 c -0.90605,-0.21744 -1.91242,-1.38375 -2.23635,-2.59179 -0.91151,-3.39928 -0.66704,-27.75145 0.4236,-42.19644 0.53985,-7.15 1.41561,-22.16549 1.94612,-33.36776 0.58964,-12.45062 1.41049,-20.90506 2.11174,-21.75 1.49188,-1.7976 18.34703,-1.8883 21.83621,-0.1175 1.83019,0.92885 4.74392,6.32038 11.74632,21.73526 11.62126,25.58271 24.50774,52 25.36585,52 0.35693,0 0.43141,-13.18651 0.16551,-29.30335 -0.2659,-16.11685 -0.15683,-32.78896 0.24238,-37.04914 l 0.72584,-7.74579 4.83195,0.29914 4.83195,0.29914 0.53915,49.25 0.53915,49.25 h -4.92584 c -5.75708,0 -4.93147,1.11315 -12.47402,-16.8183 -11.86489,-28.20724 -28.79512,-63.1817 -30.58463,-63.1817 -0.52866,0 -0.74825,1.6875 -0.48799,3.75 0.26027,2.0625 0.73678,20.06849 1.05891,40.01331 0.4722,29.23548 0.33433,36.34178 -0.71139,36.66818 -1.90423,0.59438 -23.01624,1.31948 -24.94446,0.85674 z"
             style="fill:#bb604f;fill-opacity:1"
             id="path36839" />
          <path
             d="m 814.37961,355.60733 c 0,-2.11866 16.91022,-63.38114 21.60042,-78.25421 5.3547,-16.98023 6.66056,-20.03796 8.55756,-20.03796 1.34389,0 4.44545,7.77423 7.33909,18.39583 1.39974,5.13799 5.49393,17.38834 9.0982,27.22299 3.60426,9.83465 8.94536,25.08118 11.86911,33.88118 2.92375,8.8 5.63849,16.7875 6.03275,17.75 0.62716,1.53106 0.0814,1.75 -4.36221,1.75 h -5.07905 l -1.56097,-5.75 c -2.00817,-7.39735 -6.33372,-20.82404 -8.05401,-25 l -1.33884,-3.25 h -14.92858 c -10.76138,0 -15.19803,0.34893 -15.89386,1.25 -0.53091,0.6875 -2.40169,7.22446 -4.15731,14.52658 -4.04718,16.83345 -4.58853,18.22342 -7.09755,18.22342 -1.11361,0 -2.02475,-0.31852 -2.02475,-0.70783 z m 40.85367,-42.85251 c 0.19452,-0.17252 -1.25694,-5.17952 -3.22547,-11.12666 -1.96852,-5.94715 -4.70374,-15.05407 -6.07826,-20.2376 -2.24135,-8.45247 -3.9117,-12.25133 -4.84051,-11.00873 -0.17815,0.23833 -1.82242,6.05833 -3.65394,12.93333 -1.83151,6.875 -4.40039,16.24392 -5.70862,20.81983 -1.30822,4.57591 -2.09731,8.77496 -1.75352,9.33122 0.55287,0.89456 24.20046,0.22859 25.26032,-0.71139 z"
             style="fill:#bb604f;fill-opacity:1"
             id="path36955" />
        </g>
        <g
           id="g37540"
           transform="translate(-23.426962,-4.0489869)">
          <ellipse
             style="fill:#008080;fill-opacity:1;stroke-width:5.15906"
             id="path37202"
             cx="830.81873"
             cy="400.8497"
             rx="317.49298"
             ry="20.797503" />
          <ellipse
             style="fill:#4d4d4d;fill-opacity:1;stroke-width:5.15906"
             id="path37416"
             cx="704.74286"
             cy="400.99261"
             rx="98.337982"
             ry="5.3160815" />
        </g>
      </g>
      <path
         d="m 1237.2036,156.07336 c 2.0803,0.48987 5.2303,1.67707 7,2.63823 1.7696,0.96115 3.7761,1.75739 4.4589,1.76941 0.6828,0.012 1.2774,0.46712 1.3213,1.01132 0.1438,1.78324 3.1793,4.45669 4.3209,3.80555 0.614,-0.35021 0.7747,-0.26048 0.3572,0.1994 -1.0063,1.10837 3.2615,5.60106 4.559,4.79918 0.5551,-0.34303 0.7322,-0.17546 0.3936,0.37237 -0.7036,1.13847 5.5796,7.61926 6.6223,6.83054 0.3764,-0.28467 0.4551,-0.21346 0.1751,0.15823 -0.732,0.97163 3.6281,5.36873 4.6793,4.71904 0.4837,-0.29893 0.7558,0.0524 0.6046,0.78082 -0.1511,0.72838 0.3212,1.20068 1.0496,1.04955 0.7284,-0.15112 1.0797,0.12096 0.7808,0.60464 -0.73,1.18115 3.8377,5.39397 4.8024,4.42929 0.4175,-0.41753 0.6091,-0.0841 0.4258,0.74085 -0.202,0.90909 0.2576,1.36869 1.1667,1.16667 0.825,-0.18334 1.1469,0.0198 0.7153,0.45134 -1.0273,1.02728 24.3518,26.45852 25.6213,25.67393 0.5348,-0.33053 0.6991,-0.1588 0.3651,0.38161 -0.7844,1.26919 10.6602,12.63115 11.6879,11.60348 0.4274,-0.42737 0.627,-0.10203 0.4437,0.72297 -0.1845,0.83043 0.2578,1.37735 0.991,1.22522 0.7284,-0.15112 1.0898,0.10474 0.8031,0.5686 -0.7506,1.21456 22.8014,24.42883 23.8321,23.49029 0.4736,-0.43126 0.5815,-0.29291 0.2397,0.30744 -0.7867,1.3818 5.6381,7.71098 6.7768,6.67603 0.4646,-0.42217 0.5613,-0.27049 0.2151,0.33706 -0.7868,1.38072 3.6519,5.69086 4.7934,4.65451 0.4599,-0.41753 0.5565,-0.26795 0.2147,0.3324 -0.7694,1.35143 5.6389,7.73695 6.6998,6.67603 0.4222,-0.42217 0.6176,-0.0926 0.4343,0.73242 -0.1833,0.825 0.2292,1.3875 0.9167,1.25 0.6875,-0.1375 1.1375,0.29205 1,0.95455 -0.1375,0.6625 0.425,1.23509 1.25,1.27244 0.8858,0.0401 1.3702,0.81635 1.1831,1.8958 -0.1878,1.08304 0.1132,1.5621 0.7385,1.17562 0.6634,-0.40997 0.8108,-0.0148 0.397,1.0637 -0.4205,1.0958 -0.2694,1.47549 0.4182,1.05056 0.6839,-0.4227 0.8869,0.0602 0.5565,1.3238 -0.3122,1.19365 0.054,2.20944 0.9146,2.53984 2.002,0.76824 2.1082,23.1384 0.1135,23.90384 -0.7268,0.27889 -1.3214,0.99776 -1.3214,1.59748 0,0.59972 0.5625,0.7998 1.25,0.44461 0.6875,-0.35519 0.1727,0.23151 -1.1439,1.30377 -1.5312,1.24708 -2.1061,2.41501 -1.5955,3.24128 0.4939,0.79912 0.4013,1.04632 -0.2428,0.64823 -1.2404,-0.76658 -3.3236,1.5086 -3.6944,4.03477 -0.1452,0.98984 -0.8962,1.82016 -1.6688,1.84516 -0.7725,0.025 -1.2921,0.5875 -1.1546,1.25 0.1375,0.6625 -0.3125,1.09205 -1,0.95455 -0.6875,-0.1375 -1.1375,0.3125 -1,1 0.1375,0.6875 -0.2921,1.1375 -0.9546,1 -0.6625,-0.1375 -1.225,0.425 -1.25,1.25 -0.025,0.825 -0.7204,1.52045 -1.5454,1.54545 -0.825,0.025 -1.3764,0.62095 -1.2253,1.32433 0.1512,0.70339 -0.115,1.03794 -0.5915,0.74346 -1.2109,-0.74837 -7.3919,5.82739 -6.4508,6.86283 0.4221,0.46452 0.2856,0.57063 -0.3035,0.23581 -1.3837,-0.78645 -19.7457,17.61322 -18.7111,18.74956 0.4302,0.47256 0.291,0.57956 -0.3094,0.23779 -1.3818,-0.78666 -7.711,5.63808 -6.676,6.77683 0.4221,0.46452 0.2764,0.56494 -0.324,0.22317 -1.3514,-0.76937 -7.7369,5.63892 -6.676,6.69984 0.4221,0.42217 0.113,0.61759 -0.687,0.43425 -0.8,-0.18333 -1.475,0.34167 -1.5,1.16667 -0.025,0.825 -0.7204,1.52045 -1.5454,1.54545 -0.825,0.025 -1.3875,0.5875 -1.25,1.25 0.1375,0.6625 -0.3125,1.09205 -1,0.95455 -0.6875,-0.1375 -1.1375,0.3125 -1,1 0.1375,0.6875 -0.2921,1.1375 -0.9546,1 -0.6625,-0.1375 -1.225,0.3125 -1.25,1 -0.025,0.6875 -0.3357,1.1375 -0.6905,1 -0.9826,-0.38085 -4.8715,3.41428 -4.3549,4.25 0.249,0.40299 -0.5491,1.58035 -1.7736,2.61635 l -2.2264,1.88365 1.9928,-2.5 1.9929,-2.5 -2.7121,2.39536 c -1.4916,1.31745 -2.4313,2.84948 -2.0883,3.40451 0.343,0.55503 0.1755,0.73213 -0.3724,0.39355 -1.269,-0.78427 -7.6094,5.67675 -6.5805,6.70566 0.4221,0.42217 0.113,0.61759 -0.687,0.43425 -0.8,-0.18333 -1.475,0.34167 -1.5,1.16667 -0.025,0.825 -0.7204,1.52045 -1.5454,1.54545 -0.825,0.025 -1.3875,0.5875 -1.25,1.25 0.1375,0.6625 -0.3125,1.09205 -1,0.95455 -0.6875,-0.1375 -1.1375,0.3125 -1,1 0.1375,0.6875 -0.2921,1.1375 -0.9546,1 -0.6625,-0.1375 -1.225,0.425 -1.25,1.25 -0.025,0.825 -0.7204,1.52045 -1.5454,1.54545 -0.825,0.025 -1.3875,0.5875 -1.25,1.25 0.1375,0.6625 -0.3125,1.09205 -1,0.95455 -0.6875,-0.1375 -1.1264,0.34595 -0.9753,1.07433 0.1512,0.72838 -0.1354,1.07084 -0.6367,0.76101 -1.1799,-0.72925 -3.3539,1.86551 -2.3794,2.84 0.4078,0.40773 0.066,0.59133 -0.7586,0.40799 -0.825,-0.18333 -1.3875,0.22917 -1.25,0.91667 0.1375,0.6875 -0.2921,1.1375 -0.9546,1 -0.6625,-0.1375 -1.225,0.425 -1.25,1.25 -0.025,0.825 -0.7204,1.52045 -1.5454,1.54545 -0.825,0.025 -1.3875,0.5875 -1.25,1.25 0.1375,0.6625 -0.3125,1.09205 -1,0.95455 -0.6875,-0.1375 -1.1375,0.3125 -1,1 0.1375,0.6875 -0.2921,1.1375 -0.9546,1 -0.6625,-0.1375 -1.225,0.425 -1.25,1.25 -0.025,0.825 -0.7204,1.52045 -1.5454,1.54545 -0.825,0.025 -1.3875,0.5875 -1.25,1.25 0.1375,0.6625 -0.3125,1.09205 -1,0.95455 -0.6875,-0.1375 -1.1375,0.3125 -1,1 0.1375,0.6875 -0.2921,1.1375 -0.9546,1 -0.6625,-0.1375 -1.225,0.3821 -1.25,1.15467 -0.025,0.77257 -0.8993,1.52999 -1.9429,1.68316 -1.0436,0.15316 -2.6186,1.04695 -3.5,1.98619 -1.2929,1.37776 -1.3127,1.55291 -0.1025,0.90652 0.8537,-0.45603 1.1539,-0.42196 0.6967,0.0791 -0.4419,0.48416 -1.7919,0.8938 -3,0.91032 -1.2082,0.0165 -2.0996,0.54639 -1.9809,1.17748 0.1227,0.65257 -0.5677,0.94254 -1.601,0.67235 -0.9992,-0.26129 -2.4463,0.12236 -3.2158,0.85256 -1.9301,1.83161 -17.868,1.83161 -19.7981,0 -0.7695,-0.7302 -2.2166,-1.11385 -3.2158,-0.85256 -1.0332,0.27019 -1.7237,-0.0198 -1.601,-0.67235 0.1187,-0.63109 -0.7743,-1.11411 -1.9844,-1.07338 -1.2102,0.0407 -1.9901,-0.26598 -1.7333,-0.68158 0.5683,-0.91957 -3.6072,-3.98535 -4.5958,-3.37436 -0.3868,0.2391 -1.5082,-0.45467 -2.492,-1.5417 -0.9837,-1.08703 -1.4823,-1.97642 -1.108,-1.97642 0.3744,0 -0.025,-1.36471 -0.8876,-3.0327 -0.8625,-1.66798 -1.9571,-2.79236 -2.4324,-2.49862 -0.4753,0.29375 -0.63,-0.36107 -0.3439,-1.45515 0.3131,-1.19747 -0.054,-2.20974 -0.9236,-2.54325 -1.1429,-0.43857 -1.427,-2.81776 -1.3635,-11.41683 0.044,-5.97454 -0.2503,-10.3432 -0.6543,-9.70813 -0.4238,0.66603 -0.7412,0.71974 -0.75,0.12692 -0.01,-0.56527 0.9222,-1.83048 2.068,-2.81158 1.1665,-0.9988 1.8317,-2.43971 1.5115,-3.27418 -0.3686,-0.96047 -0.16,-1.23579 0.5865,-0.77437 0.7808,0.4825 0.9438,0.15641 0.5,-1 -0.4138,-1.07852 -0.2664,-1.47367 0.397,-1.0637 0.6253,0.38648 0.9263,-0.0926 0.7385,-1.17562 -0.1871,-1.07945 0.2973,-1.85571 1.1832,-1.8958 0.825,-0.0374 1.3763,-0.64339 1.2252,-1.34677 -0.1511,-0.70339 0.106,-1.04356 0.5713,-0.75596 1.4208,0.87808 67.5481,-66.00762 66.6676,-67.43221 -0.5357,-0.86686 -0.3664,-0.99968 0.5513,-0.4325 0.9564,0.59112 1.1504,0.3651 0.6982,-0.81347 -0.3445,-0.89761 -0.1264,-1.94096 0.4845,-2.31855 0.7195,-0.44465 0.8258,-0.22532 0.3019,0.62248 -0.5515,0.89222 -0.4198,1.06841 0.4136,0.55336 0.6725,-0.41561 0.9722,-1.40852 0.666,-2.20645 -0.3062,-0.79793 -0.1641,-1.20813 0.3158,-0.91156 1.1912,0.73622 3.4762,-5.02499 2.5728,-6.4868 -0.3985,-0.64468 -0.1043,-1.55615 0.6536,-2.02548 1.8004,-1.11475 1.8492,-12.70491 0.058,-13.81179 -0.7265,-0.44903 -0.9595,-1.52226 -0.5578,-2.56919 0.4766,-1.24189 -0.054,-2.40386 -1.7161,-3.75683 -1.3234,-1.07735 -1.8436,-1.66821 -1.1561,-1.31302 1.5257,0.78825 1.5853,0.0229 0.1998,-2.56599 -0.5776,-1.07925 -1.4268,-1.72951 -1.8871,-1.44502 -0.4603,0.28449 -0.7752,-0.26541 -0.6998,-1.22199 0.076,-0.96193 -0.4548,-1.61644 -1.1873,-1.46446 -0.7283,0.15112 -1.0895,-0.10513 -0.8025,-0.56946 0.7505,-1.21442 -20.8025,-22.42735 -21.8333,-21.48877 -0.4733,0.4309 -0.5861,0.30083 -0.2508,-0.28905 0.3353,-0.58987 -3.2874,-4.86487 -8.0504,-9.5 -4.763,-4.63512 -7.7777,-7.3025 -6.6993,-5.9275 l 1.9607,2.5 -2.2264,-1.88365 c -1.2246,-1.036 -2.0227,-2.21336 -1.7736,-2.61635 0.249,-0.40299 -0.4366,-1.53759 -1.5236,-2.52134 -1.087,-0.98375 -1.9764,-1.42415 -1.9764,-0.97866 0,0.44549 -0.8894,0.005 -1.9764,-0.97866 -1.0871,-0.98375 -1.7727,-2.11835 -1.5236,-2.52134 0.249,-0.40299 -0.4366,-1.53759 -1.5236,-2.52134 -1.087,-0.98375 -1.9764,-1.43879 -1.9764,-1.0112 0,0.42758 -0.6701,0.22134 -1.489,-0.45832 -0.819,-0.67967 -1.285,-1.5659 -1.0356,-1.96942 0.2494,-0.40352 -0.986,-2.04003 -2.7453,-3.6367 -2.7227,-2.47093 -2.9035,-2.53092 -1.2145,-0.40302 l 1.9844,2.5 -2.2264,-1.88365 c -1.2246,-1.036 -2.0227,-2.21336 -1.7736,-2.61635 0.249,-0.40299 -0.4366,-1.53759 -1.5236,-2.52134 -1.087,-0.98375 -1.9764,-1.42415 -1.9764,-0.97866 0,0.44549 -0.8894,0.005 -1.9764,-0.97866 -1.0871,-0.98375 -1.7808,-2.10516 -1.5417,-2.49202 0.6361,-1.02931 -2.474,-5.15225 -3.4374,-4.55681 -0.4503,0.27828 -0.757,-0.27669 -0.6816,-1.23327 0.075,-0.95658 -0.3793,-1.64212 -1.0104,-1.52343 -0.6777,0.12748 -0.9383,-0.58386 -0.6365,-1.73785 0.3036,-1.16107 -0.075,-2.17842 -0.9329,-2.50768 -1.1429,-0.43857 -1.427,-2.81775 -1.3634,-11.41673 0.044,-5.97448 -0.2521,-10.65727 -0.6583,-10.40619 -0.4062,0.25109 -0.4715,-0.23927 -0.1452,-1.08968 0.3263,-0.85041 0.949,-1.32636 1.3838,-1.05768 0.4347,0.26868 1.0626,-0.22071 1.3952,-1.08753 0.8728,-2.27441 0.7591,-2.60867 -0.6452,-1.89733 -0.6875,0.34825 -0.35,-0.0961 0.75,-0.98742 1.1,-0.89133 2.0047,-2.27086 2.0105,-3.06562 0.01,-0.79476 0.4558,-1.46963 1,-1.4997 1.4974,-0.0827 7.4807,-6.16753 6.9343,-7.05175 -0.2626,-0.42485 0.049,-1.09808 0.6934,-1.49606 0.7734,-0.47801 0.9014,-0.28773 0.3771,0.56063 -0.5324,0.8614 -0.3363,1.11806 0.5955,0.77951 0.764,-0.2776 1.3088,-0.91455 1.2106,-1.41544 -0.098,-0.5009 0.5768,-0.97513 1.5,-1.05386 0.9232,-0.0787 4.1391,-0.85016 7.1465,-1.71429 5.9599,-1.71251 11.4346,-1.86414 17.3146,-0.47956 z m -32.2825,56.28598 c 0,0.20765 0.7875,0.99515 1.75,1.75 1.586,1.24387 1.6214,1.2085 0.3775,-0.37756 -1.3064,-1.66575 -2.1275,-2.19548 -2.1275,-1.37244 z m 19,19 c 0,0.20765 0.7875,0.99515 1.75,1.75 1.586,1.24387 1.6214,1.2085 0.3775,-0.37756 -1.3064,-1.66575 -2.1275,-2.19548 -2.1275,-1.37244 z m -21,200.99999 c 0,0.20765 0.7875,0.99515 1.75,1.75 1.586,1.24387 1.6214,1.2085 0.3775,-0.37756 -1.3064,-1.66575 -2.1275,-2.19548 -2.1275,-1.37244 z m -8.1579,-244.37755 c 0,1.375 -0.227,1.9375 -0.5044,1.25 -0.2774,-0.6875 -0.2774,-1.8125 0,-2.5 0.2774,-0.6875 0.5044,-0.125 0.5044,1.25 z m 43.7208,58.25 2.9371,3.25 -3.25,-2.93709 c -3.0295,-2.73778 -3.7097,-3.56291 -2.9371,-3.56291 0.1721,0 1.6346,1.4625 3.25,3.25 z m 6.0321,6 1.905,2.25 -2.25,-1.90499 c -2.1145,-1.79022 -2.7053,-2.59501 -1.905,-2.59501 0.1897,0 1.2022,1.0125 2.25,2.25 z m 7.9679,8 2.9371,3.25 -3.25,-2.93709 c -1.7875,-1.6154 -3.25,-3.0779 -3.25,-3.25 0,-0.77256 0.8251,-0.0924 3.5629,2.93709 z m 6.0321,6 1.905,2.25 -2.25,-1.90499 c -2.1145,-1.79022 -2.7053,-2.59501 -1.905,-2.59501 0.1897,0 1.2022,1.0125 2.25,2.25 z m 5.9679,6 2.9371,3.25 -3.25,-2.93709 c -1.7875,-1.6154 -3.25,-3.0779 -3.25,-3.25 0,-0.77256 0.8251,-0.0924 3.5629,2.93709 z m 86.9371,64.75 c -0.9955,1.1 -2.035,2 -2.31,2 -0.275,0 0.3145,-0.9 1.31,-2 0.9954,-1.1 2.0349,-2 2.3099,-2 0.275,0 -0.3145,0.9 -1.3099,2 z m -7,7 c -0.9955,1.09999 -2.035,1.99999 -2.31,1.99999 -0.275,0 0.3145,-0.9 1.31,-1.99999 0.9954,-1.1 2.0349,-2 2.3099,-2 0.275,0 -0.3145,0.9 -1.3099,2 z m -3.5,3.3129 c 0,0.1721 -1.4625,1.6346 -3.25,3.25 l -3.25,2.93709 2.9371,-3.25 c 2.7377,-3.02946 3.5629,-3.70965 3.5629,-2.93709 z m -8.5,8.68709 c -0.9955,1.1 -2.035,2 -2.31,2 -0.275,0 0.3145,-0.9 1.31,-2 0.9954,-1.1 2.0349,-2 2.3099,-2 0.275,0 -0.3145,0.9 -1.3099,2 z m -7,7 c -0.9955,1.1 -2.035,2 -2.31,2 -0.275,0 0.3145,-0.9 1.31,-2 0.9954,-1.1 2.0349,-2 2.3099,-2 0.275,0 -0.3145,0.9 -1.3099,2 z m -7,7 c -0.9955,1.1 -2.035,2 -2.31,2 -0.275,0 0.3145,-0.9 1.31,-2 0.9954,-1.1 2.0349,-2 2.3099,-2 0.275,0 -0.3145,0.9 -1.3099,2 z m -26,26 c -0.9955,1.1 -2.035,2 -2.31,2 -0.275,0 0.3145,-0.9 1.31,-2 0.9954,-1.1 2.0349,-2 2.3099,-2 0.275,0 -0.3145,0.9 -1.3099,2 z m -97.6579,14 c 0,1.375 -0.227,1.9375 -0.5044,1.25 -0.2774,-0.6875 -0.2774,-1.8125 0,-2.5 0.2774,-0.6875 0.5044,-0.125 0.5044,1.25 z m 40.3454,34.68311 c -0.7219,0.28887 -1.5844,0.25335 -1.9167,-0.0789 -0.3323,-0.33229 0.2583,-0.56864 1.3125,-0.52522 1.1649,0.048 1.4019,0.28494 0.6042,0.60416 z"
         style="fill:#f3b13d;fill-opacity:1"
         id="path1216-3" />
    </g>
  </g>
</svg>
